HIERARCHY
ROOT Hips
{
  OFFSET 31.2901 98.4257 16.9629
  CHANNELS 6 Xposition Yposition Zposition Zrotation Xrotation Yrotation
  JOINT ToSpine
  {
    OFFSET -0.0105055 1.38907 -7.13956
    CHANNELS 3 Zrotation Xrotation Yrotation
    JOINT Spine
    {
      OFFSET 0.0105055 10 1
      CHANNELS 3 Zrotation Xrotation Yrotation
      JOINT Spine1
      {
        OFFSET 0 12 1.60637
        CHANNELS 3 Zrotation Xrotation Yrotation
        JOINT Neck
        {
          OFFSET 0 27 2.26658
          CHANNELS 3 Zrotation Xrotation Yrotation
          JOINT Head
          {
            OFFSET 0 9 2.12705
            CHANNELS 3 Zrotation Xrotation Yrotation
            End Site
            {
              OFFSET 0 11 2
            }
          }
        }
        JOINT LeftShoulder
        {
          OFFSET 8 19.6109 2.86452
          CHANNELS 3 Zrotation Xrotation Yrotation
          JOINT LeftArm
          {
            OFFSET 12 1 0.681055
            CHANNELS 3 Zrotation Xrotation Yrotation
            JOINT LeftForeArm
            {
              OFFSET 19 0 -1.52608
              CHANNELS 3 Zrotation Xrotation Yrotation
              JOINT LeftHand
              {
                OFFSET 23 0 0
                CHANNELS 3 Zrotation Xrotation Yrotation
                End Site
                {
                  OFFSET 10 0 0
                }
              }
            }
          }
        }
        JOINT RightShoulder
        {
          OFFSET -8 19.6109 2.86452
          CHANNELS 3 Zrotation Xrotation Yrotation
          JOINT RightArm
          {
            OFFSET -12 1 0.681055
            CHANNELS 3 Zrotation Xrotation Yrotation
            JOINT RightForeArm
            {
              OFFSET -19 0 -1.52608
              CHANNELS 3 Zrotation Xrotation Yrotation
              JOINT RightHand
              {
                OFFSET -23 0 0
                CHANNELS 3 Zrotation Xrotation Yrotation
                End Site
                {
                  OFFSET -10 0 0
                }
              }
            }
          }
        }
      }
    }
  }
  JOINT LeftUpLeg
  {
    OFFSET 9 -7.17245 0
    CHANNELS 3 Zrotation Xrotation Yrotation
    JOINT LeftLeg
    {
      OFFSET 0 -44.1113 0
      CHANNELS 3 Zrotation Xrotation Yrotation
      JOINT LeftFoot
      {
        OFFSET 0 -36.1829 0
        CHANNELS 3 Zrotation Xrotation Yrotation
        JOINT LeftToeBase
        {
          OFFSET 0 -4.84184 13
          CHANNELS 3 Zrotation Xrotation Yrotation
          End Site
          {
            OFFSET 0 1 6
          }
        }
      }
    }
  }
  JOINT RightUpLeg
  {
    OFFSET -9 -7.17245 0
    CHANNELS 3 Zrotation Xrotation Yrotation
    JOINT RightLeg
    {
      OFFSET 0 -44.0551 0
      CHANNELS 3 Zrotation Xrotation Yrotation
      JOINT RightFoot
      {
        OFFSET 0 -36.1469 0
        CHANNELS 3 Zrotation Xrotation Yrotation
        JOINT RightToeBase
        {
          OFFSET 0 -4.92256 13
          CHANNELS 3 Zrotation Xrotation Yrotation
          End Site
          {
            OFFSET 0 1 6
          }
        }
      }
    }
  }
}
MOTION
Frames:	8
Frame Time:	0.0333333
31.3557 98.8759 18.4026 -0.445974 1.97071 -2.58659 0 0 0 -2.60312 -8.83547 -0.308027 -0.513313 15.274 -0.00461474 15.1199 -17.9199 -3.43343 4.03528 4.56439 -2.1181 -32.056 5.84421 -11.7556 -42.3579 17.3941 4.69278 -9.63602 -8.14101 -14.5581 7.71414 0.0775482 1.15248 25.6113 4.9933 12.1159 22.4774 -31.3301 -23.2112 28.1733 31.6211 134.389 14.7115 1.31174 10.1368 2.74309 2.4872 10.1332 -3.05191 4.85711 0.324095 1.90064 -4.71148 0.0785388 -1.87848 -1.93149 3.86886 -1.82685 -0.39995 -6.46943 -0.159397 3.65578 4.36539 2.26934 -5.82738 0.115472 -0.809922 1.9124 2.66697 
31.2659 98.904 18.4734 -0.410966 2.00818 -2.29414 0 0 0 -1.31457 -8.65861 -0.21179 -2.7234 15.05 0.653271 16.7844 -18.0941 -3.94845 3.21643 4.72663 -2.17492 -30.0775 5.59198 -11.8899 -43.3525 17.8868 4.42477 -8.99764 -8.0118 -15.4274 7.76565 0.0506068 0.742075 26.6691 5.04866 11.8022 22.9766 -30.0811 -22.9671 28.0304 31.15 134.175 14.7051 1.27421 9.85331 2.68961 2.58477 9.95045 -2.82968 4.55254 -0.00126991 1.39056 -4.60635 0.055865 -1.89689 -1.64073 3.97443 -1.76226 -0.293206 -6.4803 -0.128616 3.60474 4.08422 1.71588 -5.9068 0.0884248 -0.794138 1.92552 2.62645 
31.1707 98.8905 18.4927 -0.48571 1.99428 -1.84732 0 0 0 -1.96215 -8.41723 -0.321597 -1.25449 14.9563 0.151567 15.5327 -18.1754 -3.56023 3.85488 4.87518 -2.17077 -31.3054 5.82338 -12.0058 -42.1933 18.6564 4.10185 -8.80508 -9.38455 -16.4582 7.60151 0.0294121 0.442485 26.1229 4.93657 11.7109 23.9735 -28.1928 -22.3682 28.9518 30.5431 132.571 15.045 1.21722 9.19752 2.79006 2.61972 9.88703 -2.70625 4.42482 -0.154919 1.42065 -4.7979 0.0595136 -1.80028 -1.28951 3.8245 -1.63433 -0.18964 -6.53974 0.0265414 3.59539 3.89806 1.48319 -5.82922 0.076607 -0.567524 1.36551 1.89415 
31.0362 98.9201 18.5312 -0.543589 2.14239 -1.34912 0 0 0 -3.39482 -8.77484 -0.528553 1.29171 15.4402 -0.694643 14.0923 -18.2316 -3.14076 4.38898 4.64598 -2.12307 -32.8015 6.02631 -11.9319 -40.783 19.4138 3.02892 -8.88037 -10.6299 -17.1156 7.97308 0.0310306 0.443704 25.3291 4.84743 11.7951 25.6502 -24.7747 -21.3023 29.555 28.0542 129.672 14.982 1.17399 8.91013 3.02517 2.37977 9.98735 -2.78729 4.48962 -0.812593 1.42754 -4.51044 0.0562728 -1.92345 -1.64994 4.03422 -1.60427 -0.385025 -6.67724 0.272407 3.76053 3.52681 0.708126 -5.26159 0.0322274 -0.71321 0.126221 2.0595 
30.8929 98.8378 18.5794 -0.497784 2.02723 -0.94826 0 0 0 -1.93126 -8.31908 -0.444709 -1.13164 14.9871 -0.0384867 15.285 -18.54 -3.36131 4.1171 5.07121 -2.14167 -31.0914 5.86806 -12.2104 -40.9433 18.7572 1.88556 -8.50709 -9.35831 -16.8062 7.86092 0.0131827 0.189653 25.2484 4.55439 10.9165 29.4183 -20.0492 -20.4076 29.6606 23.6296 125.139 14.1365 1.10164 8.8769 3.12209 2.3519 10.0365 -2.77257 4.84258 -1.02252 1.54639 -5.00218 0.0672972 -1.63186 -1.36166 3.41617 -1.54029 -0.205149 -6.65497 0.270477 3.84612 3.03776 0.688388 -5.49241 0.0334996 -0.790591 0.321741 2.31205 
30.7556 98.88 18.6891 -0.517544 1.7511 -0.625189 0 0 0 -3.37911 -8.22627 -0.663289 1.25476 15.1862 -0.855286 14.2025 -18.2465 -3.10225 4.50164 4.85324 -2.10812 -32.6983 6.06988 -12.081 -39.3982 21.0959 1.55914 -8.3992 -11.2879 -18.3167 8.22824 0.0399648 0.556906 23.9235 4.50875 11.3605 32.2951 -14.4665 -19.7372 28.9682 17.5367 118.56 12.0373 0.915404 8.64258 3.24228 2.71066 10.0901 -2.78588 4.70216 -1.58065 1.94502 -4.37613 0.0742939 -1.92125 -2.25077 3.89855 -1.41168 0.178363 -6.65344 0.289699 3.91441 2.47182 -0.0625649 -5.3961 -0.00198167 -1.02453 -0.72427 2.78907 
30.6273 98.895 18.7083 -0.516284 1.58143 -0.497197 0 0 0 -2.48518 -7.76723 -0.625117 -0.288566 14.6962 -0.430003 15.7464 -18.0525 -3.20562 3.6937 4.76019 -1.75118 -31.3617 5.85435 -12.0626 -39.435 21.245 0.376968 -8.06465 -10.3189 -18.1966 8.42125 0.0501342 0.679859 24.6995 4.64502 11.4455 34.0847 -8.82889 -19.6647 28.1804 10.8355 109.335 8.57022 0.550611 7.29344 3.27481 2.81822 10.0295 -2.68428 4.79257 -1.78964 2.27326 -4.07538 0.0810605 -2.12583 -2.83912 4.25865 -1.38415 0.325867 -6.69822 0.288153 4.13273 2.55231 0.897088 -6.13849 0.0475737 -0.805798 0.766134 2.44051 
30.4851 98.8641 18.7164 -0.529874 1.47042 -0.479335 0 0 0 -1.51314 -7.90364 -0.551894 -1.8205 14.9511 0.025202 16.431 -18.4011 -3.18157 3.46801 5.01541 -1.62637 -30.0148 5.64903 -12.0717 -39.5785 18.7429 -1.45035 -7.48112 -6.86061 -16.9091 8.69543 0.0466617 0.613254 25.0001 4.72206 11.5505 36.1804 -3.50938 -18.9087 25.6235 4.01569 98.307 4.12536 0.216576 6.15877 3.43534 2.88051 10.1183 -2.7455 4.97629 -1.85086 2.48718 -4.2229 0.0916903 -2.03806 -2.84237 4.04678 -1.23779 0.46183 -6.62731 0.283612 4.17071 2.67849 0.958005 -6.36141 0.0532908 -0.457241 1.6186 1.64377 
